
<svg width="400" height="400" viewBox="0 0 400 400" xmlns="http://www.w3.org/2000/svg">
  <g fill="none" stroke="currentColor" opacity="0.7">
    <path d="M100,100 C150,50 250,50 300,100 S350,200 300,300 S150,350 100,300 S50,150 100,100 Z" stroke-width="1"/>
    <path d="M150,150 C175,125 225,125 250,150 S275,200 250,250 S175,275 150,250 S125,175 150,150 Z" stroke-width="1"/>
    
    <!-- Abstract lines -->
    <line x1="50" y1="50" x2="350" y2="350" stroke-width="0.5"/>
    <line x1="350" y1="50" x2="50" y2="350" stroke-width="0.5"/>
    <line x1="200" y1="50" x2="200" y2="350" stroke-width="0.5"/>
    <line x1="50" y1="200" x2="350" y2="200" stroke-width="0.5"/>
    
    <!-- Circles -->
    <circle cx="200" cy="200" r="100" stroke-width="0.5"/>
    <circle cx="200" cy="200" r="150" stroke-width="0.5"/>
  </g>
</svg>
